PathFileType	4	(X/Y/Z)	SUBJ36_3_walk_RCNL2025.trc
DataRate	CameraRate	NumFrames	NumMarkers	Units	OrigDataRate	OrigDataStartFrame	OrigNumFrames
100	100	13	25	mm	100	1	344
Frame#	Time	R_Shoulder			L_Shoulder			C7			J_Notch			R_Elbow			L_Elbow			R_Wrist			L_Wrist			R_Asis			L_Asis			Sacral			Thoracic			Sternum			R_Thigh_Lateral			R_Knee_Lateral			R_Shank_Lateral			R_Ankle_Lateral			R_Heel			R_Toe			L_Thigh_Lateral			L_Knee_Lateral			L_Shank_Lateral			L_Ankle_Lateral			L_Heel			L_Toe		
		X1	Y1	Z1	X2	Y2	Z2	X3	Y3	Z3	X4	Y4	Z4	X5	Y5	Z5	X6	Y6	Z6	X7	Y7	Z7	X8	Y8	Z8	X9	Y9	Z9	X10	Y10	Z10	X11	Y11	Z11	X12	Y12	Z12	X13	Y13	Z13	X14	Y14	Z14	X15	Y15	Z15	X16	Y16	Z16	X17	Y17	Z17	X18	Y18	Z18	X19	Y19	Z19	X20	Y20	Z20	X21	Y21	Z21	X22	Y22	Z22	X23	Y23	Z23	X24	Y24	Z24	X25	Y25	Z25
1	0.00000000	-2429.277832	1346.597900	262.476929	-2432.136475	1308.437622	-83.905273	-2496.894531	1400.629517	97.484337	-2361.547363	1291.784424	100.091812	-2507.239990	1034.012573	345.616272	-2483.147217	992.475342	-121.850952	-2430.364380	807.822021	377.250732	-2375.083618	784.043854	-110.839634	-2378.088379	909.514404	231.884109	-2379.088623	892.199341	3.440102	-2598.654541	892.434509	120.802299	-2582.941406	1145.119385	107.418320	-2275.402344	1127.403442	95.338013	-2402.557861	495.650055	264.551239	-2399.190430	436.556183	214.883804	-2421.127686	224.881653	242.535553	-2437.040771	62.106812	167.358688	-2488.087646	38.086266	124.160286	-2319.637695	39.361256	134.271820	-2418.773682	499.177124	-84.407104	-2403.109863	425.776154	-20.604097	-2561.351562	308.980835	-53.463787	-2693.410645	211.110474	20.868916	-2733.779053	217.861618	80.945839	-2647.605469	84.954933	28.890902
2	0.01000000	-2422.659912	1347.419922	262.380249	-2426.908203	1309.257812	-84.003181	-2490.842041	1401.397461	97.644279	-2355.572266	1292.490723	99.744026	-2500.451172	1034.911255	345.954559	-2478.641846	993.331177	-121.642502	-2421.391235	809.180603	376.560074	-2371.107666	784.656067	-111.179634	-2372.167236	909.964478	232.168961	-2372.548096	893.769775	3.964320	-2592.685059	893.128174	120.606178	-2576.940430	1145.876221	108.199272	-2270.592285	1127.729614	95.105865	-2400.642578	495.661407	264.452759	-2398.087158	436.600098	214.771881	-2420.766357	224.924683	242.419785	-2436.851807	61.985813	167.009415	-2488.030029	38.181011	124.111954	-2319.569824	39.320366	134.212234	-2407.156250	500.865082	-84.694138	-2390.826904	427.756744	-20.732756	-2547.831055	309.999207	-53.631588	-2678.120605	209.010300	20.179510	-2719.030518	214.429169	79.926956	-2628.759521	84.647659	27.746746
3	0.02000000	-2414.366943	1348.394409	262.271423	-2420.347412	1310.212158	-84.111382	-2483.255615	1402.295166	97.858025	-2348.077148	1293.310547	99.319954	-2491.957031	1035.963135	346.396942	-2473.009766	994.338928	-121.370834	-2410.135986	810.876648	375.724304	-2366.114746	785.363373	-111.632820	-2364.683105	910.416443	232.453873	-2364.515625	895.514771	4.542820	-2585.170898	893.938965	120.317551	-2569.402344	1146.754517	109.189316	-2264.840576	1128.045532	94.960007	-2398.360596	495.672455	264.313812	-2396.737305	436.660461	214.611343	-2420.294922	224.990738	242.258102	-2436.633789	61.881992	166.635071	-2487.963867	38.314915	124.036484	-2319.487793	39.275333	134.133041	-2392.603760	503.002014	-85.075981	-2375.540283	430.251465	-20.902155	-2530.886475	311.108002	-53.804607	-2658.616699	205.942490	19.324551	-2700.143066	209.662628	78.714035	-2604.758301	84.016327	26.384914
4	0.03000000	-2404.750488	1349.444824	262.163910	-2412.727783	1311.225464	-84.221130	-2474.451416	1403.248535	98.123650	-2339.371338	1294.175781	98.843956	-2482.117676	1037.080811	346.932617	-2466.487793	995.420471	-121.043282	-2397.075073	812.829559	374.788406	-2360.298340	786.095123	-112.188110	-2355.919922	910.798889	232.692841	-2355.372559	897.267761	5.120315	-2576.412109	894.803894	119.932861	-2560.635010	1147.679443	110.347267	-2258.359863	1128.318115	94.916916	-2395.860840	495.687500	264.137970	-2395.210449	436.733612	214.397827	-2419.718750	225.080353	242.051498	-2436.411377	61.819519	166.275177	-2487.894287	38.490292	123.934891	-2319.396973	39.232189	134.036118	-2375.739014	505.504395	-85.540703	-2357.954834	433.152710	-21.107508	-2511.223877	312.136475	-53.960564	-2635.543213	201.827835	18.352407	-2677.686768	203.538589	77.387489	-2576.437012	82.964531	24.886049
5	0.04000000	-2394.226318	1350.484131	262.070953	-2404.371582	1312.221313	-84.325996	-2464.802246	1404.178345	98.436508	-2329.819336	1295.014771	98.345222	-2471.352783	1038.168823	347.543549	-2459.345947	996.492554	-120.672409	-2382.773438	814.933990	373.806885	-2353.889893	786.774475	-112.826786	-2346.225342	911.053040	232.847488	-2345.512451	898.889099	5.647604	-2566.769531	895.658081	119.461067	-2551.003662	1148.572144	111.617928	-2251.255371	1128.538452	94.935997	-2393.290283	495.712860	263.933563	-2393.581299	436.814056	214.132172	-2419.044922	225.190842	241.808456	-2436.211182	61.814983	165.960663	-2487.823486	38.706894	123.812996	-2319.302979	39.197857	133.925232	-2357.313477	508.268311	-86.064049	-2338.892578	436.322021	-21.339224	-2489.667725	312.871521	-54.083748	-2609.711670	196.658524	17.328352	-2652.386719	196.118652	76.038803	-2544.857422	81.428406	23.314243
6	0.05000000	-2383.174072	1351.430786	262.001892	-2395.567871	1313.136108	-84.422150	-2454.646973	1405.015137	98.790031	-2319.751709	1295.766724	97.852715	-2460.037842	1039.142456	348.207306	-2451.821533	997.484253	-120.274467	-2367.747314	817.080109	372.834763	-2347.105225	787.336639	-113.530361	-2335.925293	911.147400	232.894302	-2335.257568	900.292969	6.086959	-2556.576172	896.446655	118.922668	-2540.842773	1149.365234	112.942665	-2243.597656	1128.698120	94.971657	-2390.757568	495.755920	263.712402	-2391.911621	436.899536	213.824814	-2418.281982	225.318909	241.544724	-2436.048340	61.873783	165.708008	-2487.750244	38.964245	123.679207	-2319.210938	39.178886	133.807480	-2338.045410	511.195343	-86.615128	-2319.104492	439.618561	-21.584780	-2466.950684	313.083832	-54.170193	-2581.888184	190.488388	16.324324	-2624.926514	187.522049	74.760773	-2511.034180	79.394524	21.695406
7	0.06000000	-2371.889648	1352.218994	261.962158	-2386.537109	1313.922852	-84.506821	-2444.248291	1405.706421	99.175606	-2309.428223	1296.388184	97.393623	-2448.459717	1039.936157	348.898865	-2444.090088	998.343994	-119.867493	-2352.404785	819.168030	371.912369	-2340.119385	787.737701	-114.284145	-2325.285156	911.077454	232.823608	-2324.843506	901.442261	6.410579	-2546.095947	897.126892	118.346191	-2530.415527	1150.009644	114.265228	-2235.555176	1128.758179	95.033325	-2388.323975	495.826508	263.491211	-2390.239258	436.994995	213.498871	-2417.442383	225.464218	241.280182	-2435.920166	61.995125	165.521561	-2487.671875	39.265907	123.544502	-2319.125732	39.179718	133.697906	-2318.545898	514.200073	-87.163002	-2299.185791	442.915039	-21.832075	-2443.620117	312.556641	-54.229263	-2552.686768	183.416168	15.408290	-2595.859375	177.903717	73.639374	-2475.800293	76.904434	20.022045
8	0.07000000	-2360.580078	1352.804565	261.957489	-2377.420654	1314.547485	-84.576576	-2433.786377	1406.216919	99.582848	-2299.029297	1296.854614	96.993080	-2436.810303	1040.506714	349.591736	-2436.257324	999.038391	-119.468216	-2337.033325	821.116058	371.055557	-2333.056519	787.954407	-115.077831	-2314.494141	910.855713	232.632492	-2314.429932	902.338501	6.598815	-2535.514404	897.665649	117.763229	-2519.904297	1150.474487	115.534828	-2227.400635	1128.653198	95.187714	-2386.002441	495.936676	263.293182	-2388.574463	437.112793	213.186584	-2416.544189	225.631821	241.035538	-2435.808105	62.184135	165.401306	-2487.586914	39.621281	123.421097	-2319.052002	39.202518	133.617981	-2299.295166	517.204834	-87.682274	-2279.563965	446.105347	-22.073133	-2420.022461	311.116852	-54.283226	-2522.545654	175.568710	14.633339	-2565.585449	167.439774	72.741661	-2439.767334	74.047043	18.273312
9	0.08000000	-2349.373047	1353.166016	261.995728	-2368.286865	1314.984131	-84.626137	-2423.367188	1406.527588	100.001129	-2288.662598	1297.154785	96.670830	-2425.199463	1040.829834	350.259735	-2428.370605	999.548706	-119.090271	-2321.812866	822.865936	370.263046	-2325.992188	787.977844	-115.906158	-2303.671143	910.500671	232.320251	-2304.109375	903.012024	6.640919	-2524.947266	898.036316	117.202888	-2509.420166	1150.745239	116.707932	-2219.416504	1128.317627	95.518036	-2383.763184	496.098114	263.144501	-2386.900391	437.268555	212.919891	-2415.607422	225.832382	240.829178	-2435.686279	62.456200	165.345901	-2487.493896	40.043755	123.318039	-2318.990723	39.246609	133.581451	-2280.639404	520.131897	-88.157433	-2260.520264	449.104645	-22.306065	-2396.333984	308.662781	-54.364063	-2491.744629	167.090317	14.028797	-2534.367188	156.318726	72.103271	-2403.337158	70.941154	16.438694
10	0.09000000	-2338.333496	1353.299072	262.080383	-2359.147217	1315.213623	-84.648735	-2413.038818	1406.632080	100.420593	-2278.376465	1297.284180	96.436714	-2413.674072	1040.896606	350.878815	-2420.437256	999.868408	-118.745430	-2306.842529	824.384613	369.531296	-2318.960938	787.806305	-116.767471	-2292.880859	910.031189	231.890030	-2293.920654	903.503479	6.534597	-2514.455566	898.218018	116.687584	-2499.017090	1150.820068	117.750031	-2211.788330	1127.708740	96.081161	-2381.539307	496.319153	263.065094	-2385.176758	437.475525	212.720184	-2414.649658	226.080154	240.673676	-2435.533203	62.822567	165.343643	-2487.390869	40.547825	123.237724	-2318.933105	39.303249	133.579147	-2262.799316	522.899780	-88.584846	-2242.224609	451.842407	-22.533117	-2372.609863	305.179382	-54.504875	-2460.447266	158.141129	13.594822	-2502.362793	144.737442	71.721626	-2366.736328	67.716072	14.537544
11	0.10000000	-2327.479980	1353.209106	262.205658	-2349.979248	1315.225464	-84.638908	-2402.809570	1406.534668	100.831863	-2268.177979	1297.239258	96.288101	-2402.239014	1040.709717	351.428162	-2412.444092	1000.001160	-118.445320	-2292.163574	825.656586	368.855759	-2311.964233	787.440186	-117.659702	-2282.147461	909.463501	231.349121	-2283.866211	903.842468	6.283057	-2504.062744	898.196838	116.230820	-2488.709717	1150.706543	118.637192	-2204.523193	1126.822876	96.872017	-2379.237061	496.602875	263.059937	-2383.347168	437.741333	212.594254	-2413.681152	226.390015	240.572464	-2435.343506	63.278431	165.366531	-2487.274658	41.146996	123.174759	-2318.863525	39.353226	133.579941	-2245.889160	525.425293	-88.970779	-2224.768311	454.253052	-22.756042	-2348.833008	300.739014	-54.726910	-2428.742920	148.898300	13.303418	-2469.664551	132.900650	71.557343	-2330.062256	64.503860	12.629197
12	0.11000000	-2316.802734	1352.908447	262.359650	-2340.750000	1315.020020	-84.596687	-2392.663330	1406.246704	101.225357	-2258.050049	1297.015015	96.208755	-2390.876465	1040.280396	351.890656	-2404.369629	999.957825	-118.200935	-2277.777710	826.670135	368.216675	-2304.981445	786.879822	-118.577522	-2271.467041	908.811707	230.708771	-2273.927490	904.039307	5.895764	-2493.767822	897.966858	115.836327	-2478.488770	1150.418091	119.356361	-2197.425049	1125.708130	97.807671	-2376.750488	496.947968	263.119232	-2381.350342	438.068848	212.537003	-2412.701172	226.775223	240.519775	-2435.125732	63.814877	165.382355	-2487.140625	41.853424	123.116013	-2318.765869	39.375217	133.548813	-2229.947754	527.629150	-89.326546	-2208.194580	456.272217	-22.973562	-2324.961914	295.490479	-55.030075	-2396.671387	139.546036	13.110671	-2436.336426	121.020370	71.543343	-2293.333740	61.441147	10.812142
13	0.12000000	-2306.276855	1352.415649	262.529480	-2331.429932	1314.610229	-84.529793	-2382.572510	1405.784180	101.590546	-2247.966309	1296.608398	96.172867	-2379.559814	1039.625977	352.252258	-2396.189453	999.753601	-118.021309	-2263.664795	827.413177	367.575119	-2297.981689	786.127197	-119.513149	-2260.820801	908.091980	229.991104	-2264.069824	904.091614	5.393611	-2483.554688	897.529785	115.498680	-2468.333252	1149.970703	119.903969	-2190.252930	1124.432983	98.785751	-2373.984131	497.350525	263.227997	-2379.126465	438.458099	212.536591	-2411.695801	227.247284	240.503815	-2434.890137	64.433723	165.369507	-2486.982910	42.678940	123.043350	-2318.632324	39.357197	133.464828	-2214.974609	529.440430	-89.662895	-2192.524414	457.842896	-23.183336	-2300.967529	289.637787	-55.392086	-2364.232422	130.257462	12.976039	-2402.433350	109.309776	71.602493	-2256.537842	58.668415	9.209313
